<?xml version="1.0" encoding="UTF-8"?>
<svg id="Layer_1" data-name="Layer 1" xmlns="http://www.w3.org/2000/svg" viewBox="0 0 500 500">
  <path d="M263.17,442h-23.94l-29.05-4.25c-73.27-15.42-132.3-74.61-147.78-147.84l-4.25-29.06c.33-7.67-.45-15.55,0-23.2C67.63,75.42,264.31-.04,381.78,111.87c120.02,114.34,47.2,319.9-118.62,330.13ZM248.04,71.7c-142.11,2.14-225.06,164.25-141.87,280.71,73.79,103.31,229.28,98.09,295.74-10.02,73.27-119.18-14.8-272.78-153.87-270.69Z"/>
  <path d="M239.22,442H58.14v-181.15l4.25,29.06c15.48,73.22,74.51,132.42,147.78,147.84l29.05,4.25Z" style="fill: #fff;"/>
  <path d="M205.07,327.21c-.7-.71-1.15-1.66-1.52-2.58-2.31-48.12-.31-96.72-1.02-145.02-.04-13.06,15.19-13.84,15.77-.75v140.78c1.05,7.45-7.96,12.93-13.23,7.57Z"/>
  <path d="M289.16,169.7c3.73-.76,6.9.34,8.48,3.89l.13,151.44c-2.73,5.56-11.99,5.52-13.9-.68l-.51-147.73c.33-3.37,2.43-6.23,5.8-6.92Z"/>
</svg>